<?xml version="1.0" encoding="utf-8"?>
<!-- Generator: Adobe Illustrator 17.1.0, SVG Export Plug-In . SVG Version: 6.00 Build 0)  -->
<!DOCTYPE svg PUBLIC "-//W3C//DTD SVG 1.1//EN" "http://www.w3.org/Graphics/SVG/1.1/DTD/svg11.dtd">
<svg version="1.1" id="Lager_1" xmlns="http://www.w3.org/2000/svg" xmlns:xlink="http://www.w3.org/1999/xlink" x="0px" y="0px"
	 viewBox="0 0 1069 306" enable-background="new 0 0 1069 306" xml:space="preserve">
<path fill="#010202" d="M410,154.2v26.6c-0.2,7.9-1.8,15-4.7,21.1c-2.4,5.3-6.1,10.2-11.3,14.3c-5.3,4.3-12.3,6.6-21.9,6.6
	c-9.4,0-16.8-2.4-22.1-6.6c-5.3-3.9-8.7-9-11-14.3c-2.9-6.1-4.5-13.1-4.7-21.1v-114c0.2-7.6,1.8-14.7,4.7-20.8
	c2.4-5.3,5.8-10.6,11-14.5s12.7-6.6,22.1-6.6s16.6,2.6,21.9,6.6s9,9.2,11.3,14.5c2.9,6.1,4.5,13.1,4.7,20.8v26.6h-26.6V66.7
	c0-5.3-1.3-9-4.3-12.1c-1.3-1.3-3.7-2.1-6.6-2.1c-4.9,0-7.4,3.7-8.7,7.1c-0.8,2.1-1,4.5-1.3,7.1v114c0.2,5.5,1.8,9.2,4.5,12.1
	c1.3,1.4,3.1,2.1,5.5,2.1c6.1,0,8.4-3.1,9.8-7.1c0.8-1.8,1-4.3,1-7.1v-26.6H410z M492.8,185.5c-0.8,13.9-4.9,23.7-14.2,31.3
	c-4.7,3.9-11.3,5.8-20,5.8c-17.1,0-25.5-9.4-29.8-19c-2.4-5.5-3.9-11.9-4.3-19v-72.4c0.8-13.9,4.9-24.2,14.2-32.1
	c4.5-3.9,11-5.8,19.8-5.8c17.1,0,25.8,9.4,30,18.6c2.4,5.5,3.9,11.6,4.3,18.4v74V185.5z M467.8,112.3c0.2-5.5-0.8-9.4-3.5-12.7
	c-1.3-1.3-3.5-2.1-5.8-2.1c-5.1,0-7.1,3.5-8.2,7.4c-0.8,2.1-1,4.5-0.8,7.4v72.4c-0.2,5.5,1,9.4,3.5,12.3c1.3,1.3,3.1,2.1,5.5,2.1
	c4.9,0,7.4-3.1,8.4-7.1c0.8-2.1,1-4.5,0.8-7.4v-72.4V112.3z M578.6,220.6H552v-9.4c-4.5,4.3-8.4,7.4-13.5,9.8
	c-2.6,1.3-5.3,1.8-7.6,1.8c-7.4,0-12.4-4.3-15.5-9.8c-3.5-5.3-4.9-12.3-4.9-18.4v-92c0-6.1,1.6-13.1,4.9-18.6
	c3.2-5.3,8.2-9.4,15.5-9.4c4.9,0,10.2,2.9,14.3,5.8c2.4,1.8,4.5,3.7,6.8,5.8V27h26.6V220.6z M552,108.1c0-4.3-3.9-8.7-7.9-8.7
	c-3.9,0-7.1,3.7-7.1,8.7v80.8c0,5.1,3.1,8.7,7.1,8.7c3.9,0,7.9-3.7,7.9-8.7V108.1z M666.5,169v16.6c-0.8,13.9-4.9,23.7-14.5,31.3
	c-4.7,3.9-11.3,5.8-20,5.8c-17.1,0-25.8-9.4-30-19c-2.4-5.5-3.9-11.9-4.3-19v-72.4c0.8-13.9,5.3-24.2,14.7-32.1
	c4.5-3.9,11-5.8,19.8-5.8c17.1,0,25.8,9.4,30,18.6c2.4,5.5,3.9,11.6,4.3,18.4v41.9h-44v31.3c0.2,5.5,1.8,9.4,4.3,12.3
	c1.3,1.3,3.1,2.1,5.5,2.1c4.9,0,7.4-3.1,8.4-7.1c0.8-2.1,1-4.5,1-7.4v-15.8h24.7V169z M622.5,132.6h19.2v-20.3c0-5.5-1-9.4-3.7-12.7
	c-1.3-1.3-3.5-2.1-5.8-2.1c-5.1,0-7.1,3.5-8.4,7.4c-0.8,2.1-1,4.5-1.3,7.4v20.3H622.5z M737.4,104c-2.4-0.8-4.9-1-7.4-1
	c-4.3,0-9.2,0.6-13.5,4.5c-5.1,4.3-5.8,8.7-5.8,13.1v100.1h-26.6V76.6h26.6v16.1c0.2-1.8,2.1-6.3,6.3-10.6
	c4.3-3.9,10.6-7.6,20.3-7.6V104z M749,220.7V27.1h22.4c26.4,0,40.5,5.3,48.2,20c7.4,14.7,8.4,39,8.4,76.9c0,38-1,61.9-8.4,76.6
	c-7.6,14.7-21.9,20-48.2,20H749z M777.4,192.3c9.8,0,15.3-1,18.2-10.6c1.3-4.5,2.4-11.3,2.6-20.5c0.2-9.2,0.2-21.6,0.2-37.4
	s0-28.2-0.2-37.4c-0.2-9-1.3-15.8-2.6-20.5c-2.9-9.2-8.4-10.2-18.2-10.2v136.7V192.3z M912.5,185.7c-0.8,13.9-4.9,23.7-14.2,31.3
	c-4.7,3.9-11.3,5.8-20,5.8c-17.1,0-25.5-9.4-29.8-19c-2.4-5.5-3.9-11.9-4.3-19v-72.4c0.8-13.9,4.9-24.2,14.2-32.1
	c4.5-3.9,11-5.8,19.8-5.8c17.1,0,25.8,9.4,30,18.6c2.4,5.5,3.9,11.6,4.3,18.4v74V185.7z M887.6,112.5c0.2-5.5-0.8-9.4-3.5-12.7
	c-1.3-1.3-3.5-2.1-5.8-2.1c-5.1,0-7.1,3.5-8.2,7.4c-0.8,2.1-1,4.5-0.8,7.4v72.4c-0.2,5.5,1,9.4,3.5,12.3c1.3,1.3,3.1,2.1,5.5,2.1
	c4.9,0,7.4-3.1,8.4-7.1c0.8-2.1,1-4.5,0.8-7.4v-72.4V112.5z M930.2,27.2h26.6v26.6h-26.6V27.2z M956.8,76.7v147.8
	c0,7.4,0,19-3.7,28.4c-3.7,9.8-11.9,17.4-26.8,17.4c-4.3,0-7.1-0.2-9-0.8c-1-0.2-1.8-0.6-2.6-0.8v-24.5c0.8,0.2,1.6,0.2,2.4,0.6
	c1.8,0.2,3.5,0.6,5.1,0.6c4.5,0,6.6-3.7,7.6-8.2c0.2-2.1,0.6-4.5,0.6-6.9s0-4.5,0-6.1V76.7h26.6H956.8z M1043.7,185.7
	c-0.8,13.9-4.9,23.7-14.2,31.3c-4.7,3.9-11.3,5.8-20,5.8c-17.1,0-25.5-9.4-29.8-19c-2.4-5.5-3.9-11.9-4.3-19v-72.4
	c0.8-13.9,4.9-24.2,14.2-32.1c4.5-3.9,11-5.8,19.8-5.8c17.1,0,25.8,9.4,30,18.6c2.4,5.5,3.9,11.6,4.3,18.4v74V185.7z M1018.7,112.5
	c0.2-5.5-0.8-9.4-3.5-12.7c-1.3-1.3-3.5-2.1-5.8-2.1c-5.1,0-7.1,3.5-8.2,7.4c-0.8,2.1-1,4.5-0.8,7.4v72.4c-0.2,5.5,1,9.4,3.5,12.3
	c1.3,1.3,3.1,2.1,5.5,2.1c4.9,0,7.4-3.1,8.4-7.1c0.8-2.1,1-4.5,0.8-7.4v-72.4V112.5z"/>
<g id="_833759104">
	<circle fill="#FFFFFF" cx="158.2" cy="152" r="142.5"/>
	<path fill="#010202" d="M158.7,6.6c80.2,0,145.3,65,145.3,145.3c0,80.2-65,145.3-145.3,145.3c-80.2,0-145.3-65-145.3-145.3
		C13.4,71.8,78.4,6.6,158.7,6.6z M157.2,14.1c-0.7,0-1.4,0-2.1,0C80,15.1,19.4,76.5,19.4,152s60.8,136.8,136,137.9
		c-37.2-0.9-67.1-31.4-67.1-68.9c0-38.1,30.8-68.9,68.9-68.9s68.9-30.8,68.9-68.9S195.3,14.1,157.2,14.1z"/>
	<path fill="#010202" d="M135.5,96.6V45.3c0-2.2,0.8-4.1,2.4-5.9c1.6-1.6,3.6-2.4,5.9-2.4h26.8c2.2,0,4.1,0.8,5.8,2.4
		c1.6,1.6,2.4,3.6,2.4,5.9v51.3c0,2.3-0.8,4.3-2.4,5.9c-1.6,1.6-3.6,2.4-5.9,2.4h-26.7c-2.3,0-4.3-0.8-5.9-2.4
		C136.3,100.9,135.5,98.9,135.5,96.6z M170.2,96.3V45.6h-26.1v50.6H170.2z"/>
	<path fill="#FFFFFF" d="M145.3,252h13.2v-50.6h-13c-1.2,0-2.2-0.5-3-1.3s-1.3-1.8-1.3-3c0-1.2,0.5-2.2,1.3-3c0.8-0.8,1.8-1.3,3-1.3
		H167v59.3h8.6v-17.8c0-1.2,0.5-2.2,1.3-3s1.8-1.3,3-1.3c1.2,0,2.2,0.5,3,1.3c0.8,0.8,1.3,1.8,1.3,3v22.2c0,1.2-0.5,2.2-1.3,3.1
		c-0.8,0.8-1.8,1.3-3,1.3h-34.6c-1.2,0-2.2-0.5-3-1.3c-0.8-0.9-1.3-2-1.3-3.1c0-1.2,0.5-2.2,1.3-3c0.8-0.8,1.8-1.3,3-1.3V252z"/>
</g>
<text transform="matrix(1 0 0 1 363.3052 290.0732)" font-family="'HelveticaNeue-Bold'" font-size="70.1599">SUNDSVALL</text>
</svg>
