<?xml version="1.0" encoding="utf-8"?>
<!-- Generator: Adobe Illustrator 17.1.0, SVG Export Plug-In . SVG Version: 6.00 Build 0)  -->
<!DOCTYPE svg PUBLIC "-//W3C//DTD SVG 1.1//EN" "http://www.w3.org/Graphics/SVG/1.1/DTD/svg11.dtd">
<svg version="1.1" id="Lager_1" xmlns="http://www.w3.org/2000/svg" xmlns:xlink="http://www.w3.org/1999/xlink" x="0px" y="0px"
	 viewBox="0 0 551 565" enable-background="new 0 0 551 565" xml:space="preserve">
<g>
	<path d="M67.2,458.5v20.1c-0.2,6-1.4,11.3-3.6,15.9c-1.8,4-4.6,7.7-8.6,10.7c-3.9,3.2-9.3,5-16.5,5c-7.2,0-12.7-1.8-16.7-5
		c-3.9-3-6.6-6.7-8.3-10.7c-2.2-4.6-3.4-9.9-3.6-15.9v-86c0.2-5.8,1.4-11.1,3.6-15.7c1.8-3.9,4.3-8,8.3-10.9c4-3,9.5-4.9,16.7-4.9
		c7.2,0,12.5,2,16.5,4.9c3.9,3,6.7,7,8.6,10.9c2.2,4.6,3.4,9.9,3.6,15.7v20.1H47.1v-20.1c0-3.9-1-6.7-3.2-9.1c-1-1-2.8-1.6-5-1.6
		c-3.8,0-5.6,2.8-6.6,5.3c-0.6,1.6-0.8,3.4-1,5.4v86c0.2,4.2,1.4,7,3.4,9.1c1,1,2.4,1.6,4.2,1.6c4.6,0,6.3-2.4,7.3-5.3
		c0.6-1.4,0.8-3.2,0.8-5.3v-20.1L67.2,458.5L67.2,458.5z M129.7,482.1c-0.6,10.5-3.8,17.9-10.7,23.6c-3.6,3-8.6,4.3-15.1,4.3
		c-12.9,0-19.2-7.2-22.5-14.3c-1.8-4.2-3-9-3.2-14.3v-54.6c0.6-10.5,3.8-18.2,10.7-24.2c3.4-3,8.3-4.4,14.9-4.4
		c12.9,0,19.5,7.2,22.6,14.1c1.8,4.2,3,8.7,3.2,13.9V482.1z M110.8,426.9c0.2-4.2-0.6-7.1-2.6-9.5c-1-1-2.6-1.6-4.3-1.6
		c-3.8,0-5.4,2.6-6.2,5.6c-0.6,1.6-0.8,3.4-0.6,5.6v54.6c-0.2,4.2,0.8,7.2,2.6,9.3c1,1,2.4,1.6,4.2,1.6c3.8,0,5.6-2.4,6.3-5.3
		c0.6-1.6,0.8-3.4,0.6-5.6V426.9z M194.3,508.5h-20.1v-7.2c-3.4,3.2-6.3,5.6-10.1,7.3c-2,1-4,1.4-5.8,1.4c-5.6,0-9.3-3.2-11.7-7.3
		c-2.6-3.9-3.8-9.3-3.8-13.9v-69.3c0-4.6,1.2-9.9,3.8-14.1c2.4-3.9,6.2-7.2,11.7-7.2c3.8,0,7.7,2.2,10.7,4.4
		c1.8,1.4,3.4,2.8,5.2,4.3v-44.5h20.1V508.5z M174.2,423.7c0-3.2-3-6.6-5.9-6.6c-3,0-5.3,2.8-5.3,6.6v61c0,3.8,2.4,6.6,5.3,6.6
		c3,0,5.9-2.8,5.9-6.6V423.7z M260.6,469.6v12.5c-0.6,10.5-3.8,17.9-10.9,23.6c-3.6,3-8.6,4.3-15.1,4.3c-12.9,0-19.5-7.2-22.6-14.3
		c-1.8-4.2-3-9-3.2-14.3v-54.6c0.6-10.5,3.9-18.2,11.1-24.2c3.4-3,8.3-4.4,14.9-4.4c12.9,0,19.5,7.2,22.6,14.1
		c1.8,4.2,3,8.7,3.2,13.9v31.6h-33.2v23.6c0.2,4.2,1.4,7.2,3.2,9.3c1,1,2.4,1.6,4.2,1.6c3.8,0,5.6-2.4,6.3-5.3
		c0.6-1.6,0.8-3.4,0.8-5.6v-11.9h18.7L260.6,469.6z M227.5,442.2H242v-15.3c0-4.2-0.8-7.1-2.8-9.5c-1-1-2.6-1.6-4.3-1.6
		c-3.8,0-5.4,2.6-6.3,5.6c-0.6,1.6-0.8,3.4-1,5.6L227.5,442.2L227.5,442.2z M314.1,420.5c-1.8-0.6-3.8-0.8-5.6-0.8
		c-3.2,0-6.9,0.4-10.1,3.4c-3.8,3.2-4.4,6.6-4.4,9.9v75.5H274V399.9h20.1V412c0.2-1.4,1.6-4.8,4.8-8c3.2-3,8-5.8,15.3-5.8V420.5z
		 M322.9,508.5v-146h16.9c19.9,0,30.6,4,36.3,15.1c5.6,11.1,6.3,29.4,6.3,58s-0.8,46.7-6.3,57.8c-5.7,11.1-16.5,15.1-36.3,15.1
		H322.9z M344.3,487.1c7.3,0,11.5-0.8,13.7-8c1-3.4,1.8-8.6,2-15.5c0.2-7,0.2-16.3,0.2-28.2c0-11.9,0-21.2-0.2-28.2
		c-0.2-6.7-1-11.9-2-15.5c-2.2-7-6.3-7.7-13.7-7.7V487.1L344.3,487.1z M446.2,482.1c-0.6,10.5-3.8,17.9-10.7,23.6
		c-3.6,3-8.6,4.3-15.1,4.3c-12.9,0-19.2-7.2-22.5-14.3c-1.8-4.2-3-9-3.2-14.3v-54.6c0.6-10.5,3.8-18.2,10.7-24.2
		c3.4-3,8.3-4.4,14.9-4.4c12.9,0,19.5,7.2,22.6,14.1c1.8,4.2,3,8.7,3.2,13.9V482.1z M427.4,426.9c0.2-4.2-0.6-7.1-2.6-9.5
		c-1-1-2.6-1.6-4.3-1.6c-3.8,0-5.4,2.6-6.2,5.6c-0.6,1.6-0.8,3.4-0.6,5.6v54.6c-0.2,4.2,0.8,7.2,2.6,9.3c1,1,2.4,1.6,4.2,1.6
		c3.8,0,5.6-2.4,6.3-5.3c0.6-1.6,0.8-3.4,0.6-5.6V426.9z M459.6,362.5h20.1v20.1h-20.1V362.5z M479.7,399.9v111.4
		c0,5.6,0,14.3-2.8,21.5c-2.8,7.3-9,13.1-20.2,13.1c-3.2,0-5.3-0.2-6.7-0.6c-0.8-0.2-1.4-0.4-2-0.6v-18.5c0.6,0.2,1.2,0.2,1.8,0.4
		c1.4,0.2,2.6,0.4,3.8,0.4c3.4,0,4.9-2.8,5.7-6.2c0.2-1.6,0.4-3.4,0.4-5.2V399.9H479.7z M545.1,482.1c-0.6,10.5-3.8,17.9-10.7,23.6
		c-3.6,3-8.6,4.3-15.1,4.3c-12.9,0-19.2-7.2-22.5-14.3c-1.8-4.2-3-9-3.2-14.3v-54.6c0.6-10.5,3.8-18.2,10.7-24.2
		c3.4-3,8.3-4.4,14.9-4.4c12.9,0,19.5,7.2,22.6,14.1c1.8,4.2,3,8.7,3.2,13.9V482.1z M526.3,426.8c0.2-4.2-0.6-7.1-2.6-9.5
		c-1-1-2.6-1.6-4.3-1.6c-3.8,0-5.4,2.6-6.2,5.6c-0.6,1.6-0.8,3.4-0.6,5.6v54.6c-0.2,4.2,0.8,7.2,2.6,9.3c1,1,2.4,1.6,4.2,1.6
		c3.8,0,5.6-2.4,6.3-5.3c0.6-1.6,0.8-3.4,0.6-5.6V426.8z"/>
	<path fill="#FEFEFE" d="M436.5,166.7c0,87.6-71,158.5-158.5,158.5c-87.5,0-158.5-71-158.5-158.5c0-87.5,71-158.5,158.5-158.5
		C365.5,8.2,436.5,79.1,436.5,166.7L436.5,166.7z"/>
	<path d="M278.6,5c89.3,0,161.7,72.4,161.7,161.7c0,89.3-72.4,161.7-161.7,161.7C189.4,328.4,117,256,117,166.7
		C117,77.4,189.3,5,278.6,5L278.6,5z M277,13.3c-0.8,0-1.5,0-2.3,0.1c-83.6,1.2-151.1,69.4-151.1,153.3c0,84,67.6,152.2,151.3,153.3
		c-41.4-1.1-74.7-35-74.7-76.6c0-42.3,34.4-76.6,76.6-76.6c42.3,0,76.6-34.4,76.6-76.6C353.6,47.7,319.2,13.4,277,13.3L277,13.3z"/>
	<path d="M252.8,105.1V48c0-2.5,0.9-4.7,2.7-6.5c1.8-1.8,4-2.7,6.5-2.7h29.8c2.4,0,4.6,0.9,6.4,2.7c1.8,1.8,2.7,4,2.7,6.5v57.1
		c0,2.6-0.9,4.7-2.7,6.5c-1.8,1.8-3.9,2.7-6.5,2.7h-29.6c-2.6,0-4.8-0.9-6.6-2.7C253.8,109.8,252.9,107.7,252.8,105.1L252.8,105.1z
		 M291.5,104.8V48.4h-29.1v56.3H291.5z"/>
	<path fill="#FFFFFF" d="M263.7,277.9h14.7v-56.3h-14.5c-1.3,0-2.4-0.4-3.4-1.4c-0.9-0.9-1.4-2.1-1.4-3.4c0-1.3,0.4-2.4,1.4-3.4
		c0.9-0.9,2.1-1.4,3.4-1.4h24v65.9h9.6V258c0-1.3,0.4-2.4,1.4-3.3c0.9-0.9,2.1-1.4,3.4-1.4c1.3,0,2.4,0.4,3.4,1.4
		c0.9,0.9,1.4,2.1,1.4,3.4v24.7c0,1.3-0.4,2.4-1.4,3.4c-0.9,0.9-2.1,1.4-3.4,1.4h-38.5c-1.3,0-2.5-0.5-3.4-1.4
		c-0.9-0.9-1.4-2.1-1.4-3.5c0-1.3,0.4-2.4,1.4-3.3C261.2,278.4,262.4,277.9,263.7,277.9L263.7,277.9z"/>
</g>
<text transform="matrix(1 0 0 1 30.305 559.5598)" font-family="'HelveticaNeue-Bold'" font-size="54.2628">SUNDSVALL</text>
</svg>
