<?xml version="1.0" encoding="utf-8"?>
<!-- Generator: Adobe Illustrator 17.1.0, SVG Export Plug-In . SVG Version: 6.00 Build 0)  -->
<!DOCTYPE svg PUBLIC "-//W3C//DTD SVG 1.1//EN" "http://www.w3.org/Graphics/SVG/1.1/DTD/svg11.dtd">
<svg version="1.1" xmlns="http://www.w3.org/2000/svg" xmlns:xlink="http://www.w3.org/1999/xlink" x="0px" y="0px"
	 viewBox="-189.9 -186.4 1048.8 1048.8" enable-background="new -189.9 -186.4 1048.8 1048.8" xml:space="preserve">
<g id="Lager_6">
	<g>
		<path fill="#A65792" stroke="#A65792" stroke-width="1.51" d="M-252.6,89.7l0.5-63.9l-25.1,293.6L-252.6,89.7z"/>
		<path fill="#FFC7D1" stroke="#FFC7D1" stroke-width="1.51" d="M988.4-117.8l9.9,410.6l11.9,65.6L988.4-117.8z"/>
		<path fill="#880879" stroke="#880879" stroke-width="1.51" d="M-257.5,575l-16.9-89.2l9.5,200.6L-257.5,575z"/>
		<path fill="#E995BC" stroke="#E995BC" stroke-width="1.51" d="M1010.2,358.4l-62.6,167.5l35.6,193.4L1010.2,358.4z"/>
		<path fill="#D68BB5" stroke="#D68BB5" stroke-width="1.51" d="M1010.2,358.4l-27.1,360.9l29.4,149.5L1010.2,358.4z"/>
		<path fill="#B27AAA" stroke="#B27AAA" stroke-width="1.51" d="M917.2,823.9l-87.2,29.5l182.7,15.3L917.2,823.9z"/>
		<path fill="#A22986" stroke="#A22986" stroke-width="1.51" d="M302.1,860.3l-130.4,24.4l237.5,27L302.1,860.3z"/>
		<path fill="#740073" stroke="#740073" stroke-width="1.51" d="M-264.9,686.4l-9.5-200.6l2.8,447L-264.9,686.4z"/>
		<path fill="#630070" stroke="#630070" stroke-width="1.51" d="M-255.5,791.3l-9.4-104.8l-6.7,246.4L-255.5,791.3z"/>
		<path fill="#660071" stroke="#660071" stroke-width="1.51" d="M-78.2,804.8l-177.2-13.5l-16.1,141.5L-78.2,804.8z"/>
		<path fill="#92137F" stroke="#92137F" stroke-width="1.51" d="M409.2,911.8l-237.5-27l-238.5,52.4L409.2,911.8z"/>
		<path fill="#7F0075" stroke="#7F0075" stroke-width="1.51" d="M171.7,884.8L-6.5,907.6l-60.3,29.6L171.7,884.8z"/>
		<path fill="#670072" stroke="#670072" stroke-width="1.51" d="M-78.2,804.8l-193.3,128.1l204.8,4.3L-78.2,804.8z"/>
		<path fill="#AC6D9D" stroke="#AC6D9D" stroke-width="1.51" d="M829.9,853.5l-48.6-9.8l-87.8,88.1L829.9,853.5z"/>
		<path fill="#AC6C9C" stroke="#AC6C9C" stroke-width="1.51" d="M781.3,843.6l-13.1-0.3l-74.7,88.3L781.3,843.6z"/>
		<path fill="#AD6496" stroke="#AD6496" stroke-width="1.51" d="M768.2,843.4L528,836.2l165.5,95.5L768.2,843.4z"/>
		<path fill="#AB73A3" stroke="#AB73A3" stroke-width="1.51" d="M1012.6,868.8l-182.7-15.3l-136.5,78.2L1012.6,868.8z"/>
		<path fill="#A75893" stroke="#A75893" stroke-width="1.51" d="M693.5,931.7L528,836.2l-9.9,99.8L693.5,931.7z"/>
		<path fill="#A74A8E" stroke="#A74A8E" stroke-width="1.51" d="M528,836.2l-118.8,75.5l108.9,24.3L528,836.2z"/>
		<path fill="#9B2683" stroke="#9B2683" stroke-width="1.51" d="M409.2,911.8l-476,25.4l584.9-1.1L409.2,911.8z"/>
		<path fill="#760075" stroke="#760075" stroke-width="1.51" d="M-6.5,907.6l-71.8-102.8l11.4,132.4L-6.5,907.6z"/>
		<path fill="#8F067B" stroke="#8F067B" stroke-width="1.51" d="M171.7,884.8L100,784.4L-6.5,907.6L171.7,884.8z"/>
		<path fill="#AB3688" stroke="#AB3688" stroke-width="1.51" d="M384.5,815.9l-82.4,44.4l107.1,51.4L384.5,815.9z"/>
		<path fill="#AE448D" stroke="#AE448D" stroke-width="1.51" d="M528,836.2l-143.5-20.3l24.7,95.9L528,836.2z"/>
		<path fill="#840078" stroke="#840078" stroke-width="1.51" d="M21.2,767.3l-99.4,37.5l71.8,102.8L21.2,767.3z"/>
		<path fill="#8E007A" stroke="#8E007A" stroke-width="1.51" d="M100,784.4l-78.8-17.1L-6.5,907.6L100,784.4z"/>
		<path fill="#B9699A" stroke="#B9699A" stroke-width="1.51" d="M732.3,720.6L528,836.2l240.2,7.1L732.3,720.6z"/>
		<path fill="#9E1482" stroke="#9E1482" stroke-width="1.51" d="M219.7,812.8L100,784.4l71.7,100.4L219.7,812.8z"/>
		<path fill="#A21E85" stroke="#A21E85" stroke-width="1.51" d="M302.1,860.3l-82.4-47.5l-48.1,71.9L302.1,860.3z"/>
		<path fill="#B981AF" stroke="#B981AF" stroke-width="1.51" d="M983.2,719.3l-66,104.6l95.4,44.9L983.2,719.3z"/>
		<path fill="#BD6098" stroke="#BD6098" stroke-width="1.51" d="M732.3,720.6l-225.2,18.3l20.9,97.4L732.3,720.6z"/>
		<path fill="#B275A5" stroke="#B275A5" stroke-width="1.51" d="M917.2,823.9l-135.9,19.7l48.6,9.8L917.2,823.9z"/>
		<path fill="#AE2F89" stroke="#AE2F89" stroke-width="1.51" d="M384.5,815.9l-132.2-37l49.8,81.4L384.5,815.9z"/>
		<path fill="#A92587" stroke="#A92587" stroke-width="1.51" d="M252.3,778.9l-32.5,33.9l82.4,47.5L252.3,778.9z"/>
		<path fill="#B74D92" stroke="#B74D92" stroke-width="1.51" d="M507.1,738.9l-122.6,77L528,836.2L507.1,738.9z"/>
		<path fill="#BA76A5" stroke="#BA76A5" stroke-width="1.51" d="M917.2,823.9L771.4,713.2l9.9,130.5L917.2,823.9z"/>
		<path fill="#B871A0" stroke="#B871A0" stroke-width="1.51" d="M732.3,720.6l35.9,122.8l13.1,0.3L732.3,720.6z"/>
		<path fill="#C073A1" stroke="#C073A1" stroke-width="1.51" d="M771.4,713.2l-39.1,7.4l49,123L771.4,713.2z"/>
		<path fill="#FED1D4" stroke="#FED1D4" stroke-width="1.51" d="M988.4-117.8l-40.3,214l50.2,196.6L988.4-117.8z"/>
		<path fill="#C7669A" stroke="#C7669A" stroke-width="1.51" d="M732.3,720.6l-123.8-40.5l-101.4,58.8L732.3,720.6z"/>
		<path fill="#B5348B" stroke="#B5348B" stroke-width="1.51" d="M376.5,753.1l-124.2,25.8l132.2,37L376.5,753.1z"/>
		<path fill="#BB4590" stroke="#BB4590" stroke-width="1.51" d="M507.1,738.9l-130.6,14.3l8,62.8L507.1,738.9z"/>
		<path fill="#C27EAB" stroke="#C27EAB" stroke-width="1.51" d="M983.2,719.3l-211.7-6.1l145.8,110.8L983.2,719.3z"/>
		<path fill="#750075" stroke="#750075" stroke-width="1.51" d="M-203.6,714.9l-51.8,76.3l177.2,13.5L-203.6,714.9z"/>
		<path fill="#A81986" stroke="#A81986" stroke-width="1.51" d="M252.3,778.9L100,784.4l119.8,28.5L252.3,778.9z"/>
		<path fill="#B9348B" stroke="#B9348B" stroke-width="1.51" d="M376.5,753.1l-31.1-18.3l-93.2,44.1L376.5,753.1z"/>
		<path fill="#AD1B86" stroke="#AD1B86" stroke-width="1.51" d="M252.3,778.9l-25.6-57.6L100,784.4L252.3,778.9z"/>
		<path fill="#890179" stroke="#890179" stroke-width="1.51" d="M-27.9,730.9l-88.3-32.4l37.9,106.3L-27.9,730.9z"/>
		<path fill="#810178" stroke="#810178" stroke-width="1.51" d="M-116.2,698.5l-87.5,16.5l125.4,89.8L-116.2,698.5z"/>
		<path fill="#8C007A" stroke="#8C007A" stroke-width="1.51" d="M21.2,767.3l-49.1-36.4l-50.3,73.9L21.2,767.3z"/>
		<path fill="#CC81AD" stroke="#CC81AD" stroke-width="1.51" d="M903.6,655.8l-132.2,57.4l211.7,6.1L903.6,655.8z"/>
		<path fill="#B72B8A" stroke="#B72B8A" stroke-width="1.51" d="M345.4,734.8l-118.7-13.5l25.6,57.6L345.4,734.8z"/>
		<path fill="#AE1583" stroke="#AE1583" stroke-width="1.51" d="M226.7,721.3l-106.4-60.6L100,784.4L226.7,721.3z"/>
		<path fill="#730074" stroke="#730074" stroke-width="1.51" d="M-203.6,714.9l-61.3-28.5l9.4,104.8L-203.6,714.9z"/>
		<path fill="#A1087E" stroke="#A1087E" stroke-width="1.51" d="M120.2,660.7l-99,106.6l78.8,17.1L120.2,660.7z"/>
		<path fill="#9B2884" stroke="#9B2884" stroke-width="1.51" d="M-261.6,422.7l-15.6-103.3l2.8,166.4L-261.6,422.7z"/>
		<path fill="#C54E93" stroke="#C54E93" stroke-width="1.51" d="M507.1,738.9l-13.7-83.5l-116.9,97.7L507.1,738.9z"/>
		<path fill="#C54390" stroke="#C54390" stroke-width="1.51" d="M493.4,655.4l-148,79.4l31.1,18.3L493.4,655.4z"/>
		<path fill="#9F007C" stroke="#9F007C" stroke-width="1.51" d="M120.2,660.7l-148.1,70.2l49.1,36.4L120.2,660.7z"/>
		<path fill="#BE2E8B" stroke="#BE2E8B" stroke-width="1.51" d="M282.1,677.8l-55.5,43.5l118.7,13.5L282.1,677.8z"/>
		<path fill="#A8037E" stroke="#A8037E" stroke-width="1.51" d="M120.2,660.7l-48.1-25.8l-100,96L120.2,660.7z"/>
		<path fill="#D888B1" stroke="#D888B1" stroke-width="1.51" d="M947.6,525.9l-44,129.9l79.6,63.5L947.6,525.9z"/>
		<path fill="#CA5D98" stroke="#CA5D98" stroke-width="1.51" d="M608.5,680.1l-115.1-24.7l13.7,83.5L608.5,680.1z"/>
		<path fill="#CD6F9D" stroke="#CD6F9D" stroke-width="1.51" d="M683.3,643.5l-74.8,36.6l123.8,40.5L683.3,643.5z"/>
		<path fill="#C83E8E" stroke="#C83E8E" stroke-width="1.51" d="M493.4,655.4l-211.3,22.4l63.3,57L493.4,655.4z"/>
		<path fill="#CB74A0" stroke="#CB74A0" stroke-width="1.51" d="M771.4,713.2l-88.1-69.6l49,77.1L771.4,713.2z"/>
		<path fill="#D27EA8" stroke="#D27EA8" stroke-width="1.51" d="M903.6,655.8L786.5,605l-15.1,108.1L903.6,655.8z"/>
		<path fill="#9A007C" stroke="#9A007C" stroke-width="1.51" d="M72.1,634.9l-188.3,63.6l88.3,32.4L72.1,634.9z"/>
		<path fill="#BC1F89" stroke="#BC1F89" stroke-width="1.51" d="M282.1,677.8l-161.9-17.1l106.4,60.6L282.1,677.8z"/>
		<path fill="#D378A2" stroke="#D378A2" stroke-width="1.51" d="M786.5,605l-103.3,38.5l88.1,69.6L786.5,605z"/>
		<path fill="#7F0076" stroke="#7F0076" stroke-width="1.51" d="M-116.2,698.5l-148.7-12l61.3,28.5L-116.2,698.5z"/>
		<path fill="#DC5097" stroke="#DC5097" stroke-width="1.51" d="M472.9,533.8l-177.8,1l198.3,120.5L472.9,533.8z"/>
		<path fill="#D23E90" stroke="#D23E90" stroke-width="1.51" d="M493.4,655.4L295.1,534.8l-13,142.9L493.4,655.4z"/>
		<path fill="#D2649A" stroke="#D2649A" stroke-width="1.51" d="M606.4,603.2l-113,52.2l115.1,24.7L606.4,603.2z"/>
		<path fill="#A1037D" stroke="#A1037D" stroke-width="1.51" d="M72.1,634.9l-166.8-79.5l-21.5,143.1L72.1,634.9z"/>
		<path fill="#840076" stroke="#840076" stroke-width="1.51" d="M-257.5,575l-7.4,111.4l148.7,12L-257.5,575z"/>
		<path fill="#93057C" stroke="#93057C" stroke-width="1.51" d="M-94.7,555.4L-257.5,575l141.4,123.4L-94.7,555.4z"/>
		<path fill="#C01B87" stroke="#C01B87" stroke-width="1.51" d="M201.4,546.1l-101.4,59.7l20.2,54.8L201.4,546.1z"/>
		<path fill="#C5208A" stroke="#C5208A" stroke-width="1.51" d="M201.4,546.1l-81.2,114.6l161.9,17.1L201.4,546.1z"/>
		<path fill="#D36C9C" stroke="#D36C9C" stroke-width="1.51" d="M683.3,643.5l-76.9-40.3l2.1,76.9L683.3,643.5z"/>
		<path fill="#E24B98" stroke="#E24B98" stroke-width="1.51" d="M353.3,515l-58.2,19.8l177.8-1L353.3,515z"/>
		<path fill="#D0318F" stroke="#D0318F" stroke-width="1.51" d="M295.1,534.8l-93.7,11.2l80.7,131.7L295.1,534.8z"/>
		<path fill="#D97AA3" stroke="#D97AA3" stroke-width="1.51" d="M786.5,605l-49.5-13.7l-53.8,52.2L786.5,605z"/>
		<path fill="#DD87B0" stroke="#DD87B0" stroke-width="1.51" d="M947.6,525.9L786.5,605l117.1,50.8L947.6,525.9z"/>
		<path fill="#D9619B" stroke="#D9619B" stroke-width="1.51" d="M606.4,603.2l-133.5-69.4l20.5,121.6L606.4,603.2z"/>
		<path fill="#B50E82" stroke="#B50E82" stroke-width="1.51" d="M100.1,605.8l-28,29l48.1,25.8L100.1,605.8z"/>
		<path fill="#D9749F" stroke="#D9749F" stroke-width="1.51" d="M737.1,591.3l-130.6,11.9l76.9,40.3L737.1,591.3z"/>
		<path fill="#E286AF" stroke="#E286AF" stroke-width="1.51" d="M947.6,525.9L766,572l20.6,33L947.6,525.9z"/>
		<path fill="#B60E82" stroke="#B60E82" stroke-width="1.51" d="M100.1,605.8l-123-83.6l95,112.6L100.1,605.8z"/>
		<path fill="#AE1082" stroke="#AE1082" stroke-width="1.51" d="M-22.9,522.3l-71.8,33.1l166.8,79.5L-22.9,522.3z"/>
		<path fill="#F39BC1" stroke="#F39BC1" stroke-width="1.51" d="M1010.2,358.4l-80.1,133.4l17.5,34.1L1010.2,358.4z"/>
		<path fill="#E78AB1" stroke="#E78AB1" stroke-width="1.51" d="M947.6,525.9l-172-19.9l-9.7,66L947.6,525.9z"/>
		<path fill="#E26DA1" stroke="#E26DA1" stroke-width="1.51" d="M627.8,500.3l-154.9,33.6l133.5,69.4L627.8,500.3z"/>
		<path fill="#E07AA3" stroke="#E07AA3" stroke-width="1.51" d="M737.1,591.3l-27.6-85.7l-103,97.5L737.1,591.3z"/>
		<path fill="#E478A5" stroke="#E478A5" stroke-width="1.51" d="M709.5,505.7l-81.7-5.4l-21.4,102.9L709.5,505.7z"/>
		<path fill="#DD7FA7" stroke="#DD7FA7" stroke-width="1.51" d="M766,572l-28.9,19.4l49.5,13.7L766,572z"/>
		<path fill="#E27FA8" stroke="#E27FA8" stroke-width="1.51" d="M766,572l-56.5-66.3l27.6,85.7L766,572z"/>
		<path fill="#C01B87" stroke="#C01B87" stroke-width="1.51" d="M201.4,546.1l-224.4-23.8l123,83.6L201.4,546.1z"/>
		<path fill="#C5208A" stroke="#C5208A" stroke-width="1.51" d="M47,467.9l-69.9,54.4l224.4,23.8L47,467.9z"/>
		<path fill="#EB91B7" stroke="#EB91B7" stroke-width="1.51" d="M930.1,491.8L775.7,506l172,19.9L930.1,491.8z"/>
		<path fill="#96127F" stroke="#96127F" stroke-width="1.51" d="M-94.7,555.4l-179.7-69.6l16.9,89.2L-94.7,555.4z"/>
		<path fill="#E784AB" stroke="#E784AB" stroke-width="1.51" d="M775.7,506l-66.2-0.3L766,572L775.7,506z"/>
		<path fill="#E86CA4" stroke="#E86CA4" stroke-width="1.51" d="M627.8,500.3L495,474.4l-22.1,59.4L627.8,500.3z"/>
		<path fill="#D12B91" stroke="#D12B91" stroke-width="1.51" d="M170,463.9l-123.1,4l154.5,78.2L170,463.9z"/>
		<path fill="#A64E90" stroke="#A64E90" stroke-width="1.51" d="M-236.8,203.6l-15.8-113.9l-24.6,229.7L-236.8,203.6z"/>
		<path fill="#D83394" stroke="#D83394" stroke-width="1.51" d="M295.1,534.8l-125.1-71l31.4,82.2L295.1,534.8z"/>
		<path fill="#B41B87" stroke="#B41B87" stroke-width="1.51" d="M-22.9,522.3l-8.6-100l-63.2,133.1L-22.9,522.3z"/>
		<path fill="#A91B86" stroke="#A91B86" stroke-width="1.51" d="M-31.5,422.3l-242.9,63.6l179.7,69.6L-31.5,422.3z"/>
		<path fill="#E03B98" stroke="#E03B98" stroke-width="1.51" d="M260.5,440.1L170,463.9l125.1,71L260.5,440.1z"/>
		<path fill="#E65B9E" stroke="#E65B9E" stroke-width="1.51" d="M495,474.4L353.3,515l119.6,18.8L495,474.4z"/>
		<path fill="#A42486" stroke="#A42486" stroke-width="1.51" d="M-31.5,422.3l-230.1,0.5l-12.8,63.1L-31.5,422.3z"/>
		<path fill="#E24399" stroke="#E24399" stroke-width="1.51" d="M353.3,515l-92.8-74.9l34.7,94.7L353.3,515z"/>
		<path fill="#EE74A7" stroke="#EE74A7" stroke-width="1.51" d="M566.6,427.7L495,474.4l132.8,25.8L566.6,427.7z"/>
		<path fill="#F08AB1" stroke="#F08AB1" stroke-width="1.51" d="M769.1,392.4l-59.7,113.2l66.2,0.3L769.1,392.4z"/>
		<path fill="#F191B7" stroke="#F191B7" stroke-width="1.51" d="M930.1,491.8l-161-99.4l6.5,113.6L930.1,491.8z"/>
		<path fill="#EB5A9F" stroke="#EB5A9F" stroke-width="1.51" d="M495,474.4l-120.3-62.8L353.3,515L495,474.4z"/>
		<path fill="#BF228A" stroke="#BF228A" stroke-width="1.51" d="M47,467.9l-78.5-45.6l8.6,100L47,467.9z"/>
		<path fill="#E94D9C" stroke="#E94D9C" stroke-width="1.51" d="M374.7,411.6l-114.2,28.5l92.8,74.9L374.7,411.6z"/>
		<path fill="#EF81AB" stroke="#EF81AB" stroke-width="1.51" d="M633.6,385l-5.8,115.2l81.7,5.4L633.6,385z"/>
		<path fill="#F28BAE" stroke="#F28BAE" stroke-width="1.51" d="M769.1,392.4L633.6,385l75.9,120.7L769.1,392.4z"/>
		<path fill="#F07FAA" stroke="#F07FAA" stroke-width="1.51" d="M633.6,385l-67,42.7l61.2,72.5L633.6,385z"/>
		<path fill="#F69DBF" stroke="#F69DBF" stroke-width="1.51" d="M1010.2,358.4l-241.1,34l161,99.4L1010.2,358.4z"/>
		<path fill="#D02E90" stroke="#D02E90" stroke-width="1.51" d="M170,463.9l-86.8-38.2L47,467.9L170,463.9z"/>
		<path fill="#EF6BA4" stroke="#EF6BA4" stroke-width="1.51" d="M566.6,427.7l-191.9-16.1L495,474.4L566.6,427.7z"/>
		<path fill="#B42F8A" stroke="#B42F8A" stroke-width="1.51" d="M-38.8,353.2l-222.8,69.5l230.1-0.5L-38.8,353.2z"/>
		<path fill="#DE3A97" stroke="#DE3A97" stroke-width="1.51" d="M260.5,440.1l-128.2-29.3l37.8,53.1L260.5,440.1z"/>
		<path fill="#D53592" stroke="#D53592" stroke-width="1.51" d="M132.2,410.8l-49,14.8l86.8,38.2L132.2,410.8z"/>
		<path fill="#C72B8C" stroke="#C72B8C" stroke-width="1.51" d="M83.2,425.7l-114.7-3.4L47,467.9L83.2,425.7z"/>
		<path fill="#FEC1CE" stroke="#FEC1CE" stroke-width="1.51" d="M948.1,96.3l0.4,114.7l49.9,81.9L948.1,96.3z"/>
		<path fill="#FAA3BE" stroke="#FAA3BE" stroke-width="1.51" d="M1010.2,358.4l-185.8-65.6l-55.3,99.6L1010.2,358.4z"/>
		<path fill="#E6499B" stroke="#E6499B" stroke-width="1.51" d="M304.4,354.7l-135.8-21l-36.4,77.1L304.4,354.7z"/>
		<path fill="#C9318C" stroke="#C9318C" stroke-width="1.51" d="M13,368.8l-44.5,53.5l114.7,3.4L13,368.8z"/>
		<path fill="#F781AA" stroke="#F781AA" stroke-width="1.51" d="M595.4,310.7l-155.5-1.8l126.7,118.8L595.4,310.7z"/>
		<path fill="#F370A5" stroke="#F370A5" stroke-width="1.51" d="M439.9,308.9l-65.2,102.7l191.9,16.1L439.9,308.9z"/>
		<path fill="#EC549D" stroke="#EC549D" stroke-width="1.51" d="M374.7,411.6l-70.2-56.9l-44,85.4L374.7,411.6z"/>
		<path fill="#E6479B" stroke="#E6479B" stroke-width="1.51" d="M304.4,354.7l-172.2,56.1l128.2,29.3L304.4,354.7z"/>
		<path fill="#F691AF" stroke="#F691AF" stroke-width="1.51" d="M678.3,347l-44.8,38l135.6,7.4L678.3,347z"/>
		<path fill="#AA3288" stroke="#AA3288" stroke-width="1.51" d="M-38.8,353.2l-238.4-33.8l15.6,103.3L-38.8,353.2z"/>
		<path fill="#F686AB" stroke="#F686AB" stroke-width="1.51" d="M633.6,385l-38.2-74.4l-28.8,117.1L633.6,385z"/>
		<path fill="#D1368F" stroke="#D1368F" stroke-width="1.51" d="M132.2,410.8L13,368.8l70.2,56.9L132.2,410.8z"/>
		<path fill="#C4358C" stroke="#C4358C" stroke-width="1.51" d="M13,368.8l-51.8-15.6l7.3,69.1L13,368.8z"/>
		<path fill="#F464A1" stroke="#F464A1" stroke-width="1.51" d="M439.9,308.9l-135.5,45.8l70.2,56.9L439.9,308.9z"/>
		<path fill="#FFADC4" stroke="#FFADC4" stroke-width="1.51" d="M998.4,292.8l-173.9,0l185.8,65.6L998.4,292.8z"/>
		<path fill="#D83F93" stroke="#D83F93" stroke-width="1.51" d="M168.6,333.8L13,368.8l119.2,42L168.6,333.8z"/>
		<path fill="#B43E8D" stroke="#B43E8D" stroke-width="1.51" d="M-142.1,255.2l-135.1,64.2l238.4,33.8L-142.1,255.2z"/>
		<path fill="#FA9BB5" stroke="#FA9BB5" stroke-width="1.51" d="M824.4,292.8L678.3,347l90.8,45.4L824.4,292.8z"/>
		<path fill="#F88EAD" stroke="#F88EAD" stroke-width="1.51" d="M678.3,347l-83-36.4l38.2,74.4L678.3,347z"/>
		<path fill="#B077A7" stroke="#B077A7" stroke-width="1.51" d="M-192.5-185.2l-8.9-71.9l-50.7,282.9L-192.5-185.2z"/>
		<path fill="#D44391" stroke="#D44391" stroke-width="1.51" d="M168.6,333.8l-185.1-67.5L13,368.8L168.6,333.8z"/>
		<path fill="#EE599E" stroke="#EE599E" stroke-width="1.51" d="M265.8,250.4l-97.1,83.4l135.8,21L265.8,250.4z"/>
		<path fill="#CA3E8F" stroke="#CA3E8F" stroke-width="1.51" d="M-16.4,266.2l-22.4,87L13,368.8L-16.4,266.2z"/>
		<path fill="#DC5197" stroke="#DC5197" stroke-width="1.51" d="M143.8,231.1l-160.3,35.1l185.1,67.5L143.8,231.1z"/>
		<path fill="#C24590" stroke="#C24590" stroke-width="1.51" d="M-16.4,266.2l-125.6-11l103.2,97.9L-16.4,266.2z"/>
		<path fill="#FBA2B5" stroke="#FBA2B5" stroke-width="1.51" d="M824.4,292.8l-154.7-92.7l8.6,146.9L824.4,292.8z"/>
		<path fill="#F567A1" stroke="#F567A1" stroke-width="1.51" d="M439.9,308.9l-174.1-58.5l38.7,104.3L439.9,308.9z"/>
		<path fill="#FCACBC" stroke="#FCACBC" stroke-width="1.51" d="M800.1,220.6l-130.4-20.6l154.7,92.7L800.1,220.6z"/>
		<path fill="#FB98B1" stroke="#FB98B1" stroke-width="1.51" d="M669.7,200.1l-74.3,110.6l83,36.4L669.7,200.1z"/>
		<path fill="#FEB3C6" stroke="#FEB3C6" stroke-width="1.51" d="M948.5,210.9l-124.1,81.9l173.9,0L948.5,210.9z"/>
		<path fill="#F874A5" stroke="#F874A5" stroke-width="1.51" d="M374.2,202.1l-108.5,48.3l174.1,58.5L374.2,202.1z"/>
		<path fill="#F98CAD" stroke="#F98CAD" stroke-width="1.51" d="M576.3,226.3l-136.4,82.6l155.5,1.8L576.3,226.3z"/>
		<path fill="#EA5B9F" stroke="#EA5B9F" stroke-width="1.51" d="M265.8,250.4l-121.9-19.3l24.8,102.6L265.8,250.4z"/>
		<path fill="#AE458D" stroke="#AE458D" stroke-width="1.51" d="M-142.1,255.2l-39-29.8l-96.2,94L-142.1,255.2z"/>
		<path fill="#FA8FAE" stroke="#FA8FAE" stroke-width="1.51" d="M576.3,226.3L500.9,184l-61,124.9L576.3,226.3z"/>
		<path fill="#FA9CB2" stroke="#FA9CB2" stroke-width="1.51" d="M669.7,200.1l-93.5,26.2l19.1,84.3L669.7,200.1z"/>
		<path fill="#FDB3C3" stroke="#FDB3C3" stroke-width="1.51" d="M948.5,210.9l-148.4,9.7l24.3,72.2L948.5,210.9z"/>
		<path fill="#A9478D" stroke="#A9478D" stroke-width="1.51" d="M-181,225.4l-55.8-21.8l-40.4,115.8L-181,225.4z"/>
		<path fill="#F986AB" stroke="#F986AB" stroke-width="1.51" d="M500.9,184l-126.7,18.1l65.7,106.8L500.9,184z"/>
		<path fill="#BA5495" stroke="#BA5495" stroke-width="1.51" d="M-51.1,126L-181,225.4l39,29.8L-51.1,126z"/>
		<path fill="#ED67A3" stroke="#ED67A3" stroke-width="1.51" d="M229.4,190.5l-85.5,40.6l121.9,19.3L229.4,190.5z"/>
		<path fill="#C35495" stroke="#C35495" stroke-width="1.51" d="M-51.1,126l-91,129.2l125.6,11L-51.1,126z"/>
		<path fill="#CC5E99" stroke="#CC5E99" stroke-width="1.51" d="M32.2,133.3l-83.2-7.3l34.7,140.2L32.2,133.3z"/>
		<path fill="#D65B98" stroke="#D65B98" stroke-width="1.51" d="M143.8,231.1L32.2,133.3l-48.6,132.9L143.8,231.1z"/>
		<path fill="#F375A7" stroke="#F375A7" stroke-width="1.51" d="M374.2,202.1l-127.4-26.9l19,75.2L374.2,202.1z"/>
		<path fill="#F06FA5" stroke="#F06FA5" stroke-width="1.51" d="M246.8,175.2l-17.4,15.3l36.4,59.9L246.8,175.2z"/>
		<path fill="#BB5C97" stroke="#BB5C97" stroke-width="1.51" d="M-51.1,126l-72.4-5.1L-181,225.4L-51.1,126z"/>
		<path fill="#FDC8CF" stroke="#FDC8CF" stroke-width="1.51" d="M948.1,96.3L923,114.1l25.5,96.8L948.1,96.3z"/>
		<path fill="#FCB3BE" stroke="#FCB3BE" stroke-width="1.51" d="M779.4,129.1l-109.6,71l130.4,20.6L779.4,129.1z"/>
		<path fill="#FEBFCA" stroke="#FEBFCA" stroke-width="1.51" d="M948.5,210.9L923,114.1L800.1,220.6L948.5,210.9z"/>
		<path fill="#FCBEC7" stroke="#FCBEC7" stroke-width="1.51" d="M923,114.1l-143.7,15l20.8,91.6L923,114.1z"/>
		<path fill="#FBA8B7" stroke="#FBA8B7" stroke-width="1.51" d="M669.7,200.1l-14.3-70.9l-79.2,97.1L669.7,200.1z"/>
		<path fill="#FBA2B6" stroke="#FBA2B6" stroke-width="1.51" d="M655.5,129.2L500.9,184l75.4,42.3L655.5,129.2z"/>
		<path fill="#E367A0" stroke="#E367A0" stroke-width="1.51" d="M229.4,190.5L32.2,133.3l111.7,97.8L229.4,190.5z"/>
		<path fill="#FA8DAE" stroke="#FA8DAE" stroke-width="1.51" d="M500.9,184l-93.1-43.4l-33.6,61.5L500.9,184z"/>
		<path fill="#B25694" stroke="#B25694" stroke-width="1.51" d="M-123.5,120.9l-113.3,82.7l55.8,21.8L-123.5,120.9z"/>
		<path fill="#E86DA4" stroke="#E86DA4" stroke-width="1.51" d="M246.8,175.2L32.2,133.3l197.2,57.2L246.8,175.2z"/>
		<path fill="#F782AA" stroke="#F782AA" stroke-width="1.51" d="M407.8,140.6l-161,34.6l127.4,26.9L407.8,140.6z"/>
		<path fill="#FBB4BC" stroke="#FBB4BC" stroke-width="1.51" d="M779.4,129.1l-123.9,0.1l14.3,70.9L779.4,129.1z"/>
		<path fill="#AF5B95" stroke="#AF5B95" stroke-width="1.51" d="M-123.5,120.9l-129-31.2l15.8,113.9L-123.5,120.9z"/>
		<path fill="#E975A6" stroke="#E975A6" stroke-width="1.51" d="M228.4,41.5L32.2,133.3l214.7,41.9L228.4,41.5z"/>
		<path fill="#F684AB" stroke="#F684AB" stroke-width="1.51" d="M407.8,140.6L302,69.8l-55.2,105.4L407.8,140.6z"/>
		<path fill="#FBA8B8" stroke="#FBA8B8" stroke-width="1.51" d="M655.5,129.2L510.2,46.5L500.9,184L655.5,129.2z"/>
		<path fill="#FA9CB3" stroke="#FA9CB3" stroke-width="1.51" d="M510.2,46.5l-102.3,94.1l93.1,43.4L510.2,46.5z"/>
		<path fill="#DF73A2" stroke="#DF73A2" stroke-width="1.51" d="M228.4,41.5l-196.6,27l0.3,64.8L228.4,41.5z"/>
		<path fill="#F282AB" stroke="#F282AB" stroke-width="1.51" d="M302,69.8l-73.6-28.3l18.4,133.7L302,69.8z"/>
		<path fill="#FED9D5" stroke="#FED9D5" stroke-width="1.51" d="M988.4-117.8L896.1,23.6l52,72.7L988.4-117.8z"/>
		<path fill="#FDC7CA" stroke="#FDC7CA" stroke-width="1.51" d="M923,114.1l-97.5-75.3l-46.2,90.3L923,114.1z"/>
		<path fill="#FCBBBE" stroke="#FCBBBE" stroke-width="1.51" d="M729.5,89.7l-74,39.5l123.9-0.1L729.5,89.7z"/>
		<path fill="#FA9DB3" stroke="#FA9DB3" stroke-width="1.51" d="M510.2,46.5L418,58.2l-10.2,82.4L510.2,46.5z"/>
		<path fill="#FA91AE" stroke="#FA91AE" stroke-width="1.51" d="M418,58.2L302,69.8l105.8,70.8L418,58.2z"/>
		<path fill="#FCB5BB" stroke="#FCB5BB" stroke-width="1.51" d="M729.5,89.7L510.2,46.5l145.3,82.7L729.5,89.7z"/>
		<path fill="#FCC3C4" stroke="#FCC3C4" stroke-width="1.51" d="M825.6,38.8l-96.1,51l49.9,39.3L825.6,38.8z"/>
		<path fill="#D1689C" stroke="#D1689C" stroke-width="1.51" d="M31.8,68.5L-51.1,126l83.2,7.3L31.8,68.5z"/>
		<path fill="#E87DA7" stroke="#E87DA7" stroke-width="1.51" d="M228.4,41.5l-26.5-22.8l-170,49.8L228.4,41.5z"/>
		<path fill="#FECFCF" stroke="#FECFCF" stroke-width="1.51" d="M896.1,23.6l-70.6,15.2l122.6,57.5L896.1,23.6z"/>
		<path fill="#FDCCCE" stroke="#FDCCCE" stroke-width="1.51" d="M948.1,96.3L825.6,38.8l97.5,75.3L948.1,96.3z"/>
		<path fill="#FCBEBE" stroke="#FCBEBE" stroke-width="1.51" d="M741.7-7.7L510.2,46.5l219.3,43.3L741.7-7.7z"/>
		<path fill="#C8669A" stroke="#C8669A" stroke-width="1.51" d="M31.8,68.5l-155.4,52.4l72.4,5.1L31.8,68.5z"/>
		<path fill="#C96D9D" stroke="#C96D9D" stroke-width="1.51" d="M31.8,68.5l-75.4-93.6l-79.9,146L31.8,68.5z"/>
		<path fill="#AF6296" stroke="#AF6296" stroke-width="1.51" d="M-252.1,25.8l-0.5,63.9l129,31.2L-252.1,25.8z"/>
		<path fill="#BA6A9B" stroke="#BA6A9B" stroke-width="1.51" d="M-43.6-25.1l-208.5,50.9l128.6,95.1L-43.6-25.1z"/>
		<path fill="#FDC7C5" stroke="#FDC7C5" stroke-width="1.51" d="M825.6,38.8L741.7-7.7l-12.2,97.5L825.6,38.8z"/>
		<path fill="#B76F9E" stroke="#B76F9E" stroke-width="1.51" d="M-43.6-25.1l-136.5-17.6l-72,68.5L-43.6-25.1z"/>
		<path fill="#FCBEBF" stroke="#FCBEBF" stroke-width="1.51" d="M741.7-7.7L575.2-70.2l-65,116.7L741.7-7.7z"/>
		<path fill="#E07BA4" stroke="#E07BA4" stroke-width="1.51" d="M201.9,18.7L50.3-27.1L31.8,68.5L201.9,18.7z"/>
		<path fill="#FBB6BD" stroke="#FBB6BD" stroke-width="1.51" d="M575.2-70.2l-68.8,25.8l3.8,90.9L575.2-70.2z"/>
		<path fill="#FB9DB2" stroke="#FB9DB2" stroke-width="1.51" d="M457.4,17.8L284-42.2L418,58.2L457.4,17.8z"/>
		<path fill="#FBA5B6" stroke="#FBA5B6" stroke-width="1.51" d="M510.2,46.5l-52.8-28.6L418,58.2L510.2,46.5z"/>
		<path fill="#F994AF" stroke="#F994AF" stroke-width="1.51" d="M418,58.2L284-42.2l18,111.9L418,58.2z"/>
		<path fill="#F58DAD" stroke="#F58DAD" stroke-width="1.51" d="M284-42.2l-55.6,83.7L302,69.8L284-42.2z"/>
		<path fill="#D476A0" stroke="#D476A0" stroke-width="1.51" d="M50.3-27.1l-93.9,2.1l75.4,93.6L50.3-27.1z"/>
		<path fill="#B171A1" stroke="#B171A1" stroke-width="1.51" d="M-180.1-42.6l-12.4-142.5l-59.6,211L-180.1-42.6z"/>
		<path fill="#FDCDC8" stroke="#FDCDC8" stroke-width="1.51" d="M771.4-26.1L741.7-7.7l83.9,46.5L771.4-26.1z"/>
		<path fill="#FCADB9" stroke="#FCADB9" stroke-width="1.51" d="M506.3-44.4l-49,62.3l52.8,28.6L506.3-44.4z"/>
		<path fill="#F28BAE" stroke="#F28BAE" stroke-width="1.51" d="M284-42.2l-82.1,60.9l26.5,22.8L284-42.2z"/>
		<path fill="#FDD0CC" stroke="#FDD0CC" stroke-width="1.51" d="M896.1,23.6L771.4-26.1l54.2,64.9L896.1,23.6z"/>
		<path fill="#FDC9C4" stroke="#FDC9C4" stroke-width="1.51" d="M723-64l-147.9-6.2L741.7-7.7L723-64z"/>
		<path fill="#FEDDD9" stroke="#FEDDD9" stroke-width="1.51" d="M988.4-117.8L871.1-94.5l25.1,118.1L988.4-117.8z"/>
		<path fill="#FDD5D1" stroke="#FDD5D1" stroke-width="1.51" d="M871.1-94.5l-99.7,68.4l124.7,49.7L871.1-94.5z"/>
		<path fill="#EB86AD" stroke="#EB86AD" stroke-width="1.51" d="M262.2-53.4l-212,26.3l151.6,45.9L262.2-53.4z"/>
		<path fill="#F38FB1" stroke="#F38FB1" stroke-width="1.51" d="M284-42.2l-21.7-11.2l-60.4,72.1L284-42.2z"/>
		<path fill="#FCAFBC" stroke="#FCAFBC" stroke-width="1.51" d="M506.3-44.4l-50.2-53.8l1.2,116.1L506.3-44.4z"/>
		<path fill="#FCA4B8" stroke="#FCA4B8" stroke-width="1.51" d="M456.2-98.3L284-42.2l173.4,60L456.2-98.3z"/>
		<path fill="#EC8AB1" stroke="#EC8AB1" stroke-width="1.51" d="M262.2-53.4L188-120.9L50.3-27.1L262.2-53.4z"/>
		<path fill="#D379A3" stroke="#D379A3" stroke-width="1.51" d="M50.3-27.1L1.3-54.4l-44.9,29.3L50.3-27.1z"/>
		<path fill="#FDCDC8" stroke="#FDCDC8" stroke-width="1.51" d="M771.4-26.1L723-64l18.6,56.3L771.4-26.1z"/>
		<path fill="#C275A2" stroke="#C275A2" stroke-width="1.51" d="M-65.2-76l-114.9,33.4l136.5,17.6L-65.2-76z"/>
		<path fill="#FDD4CF" stroke="#FDD4CF" stroke-width="1.51" d="M871.1-94.5L723-64l48.3,37.9L871.1-94.5z"/>
		<path fill="#FCA2BA" stroke="#FCA2BA" stroke-width="1.51" d="M456.2-98.3L314.5-151L284-42.2L456.2-98.3z"/>
		<path fill="#DB80A9" stroke="#DB80A9" stroke-width="1.51" d="M98.2-149.4l-96.9,95l48.9,27.2L98.2-149.4z"/>
		<path fill="#E488B0" stroke="#E488B0" stroke-width="1.51" d="M188-120.9l-89.8-28.5l-48,122.2L188-120.9z"/>
		<path fill="#CD79A4" stroke="#CD79A4" stroke-width="1.51" d="M1.3-54.4L-65.2-76l21.6,50.9L1.3-54.4z"/>
		<path fill="#F799B7" stroke="#F799B7" stroke-width="1.51" d="M314.5-151l-52.2,97.6L284-42.2L314.5-151z"/>
		<path fill="#FCB7C1" stroke="#FCB7C1" stroke-width="1.51" d="M575.2-70.2l-119-28l50.2,53.8L575.2-70.2z"/>
		<path fill="#FDCBCC" stroke="#FDCBCC" stroke-width="1.51" d="M681.5-204.1l-101.3,15.2l-4.9,118.6L681.5-204.1z"/>
		<path fill="#FDD8D5" stroke="#FDD8D5" stroke-width="1.51" d="M871.1-94.5l-73.2-95.1L723-64L871.1-94.5z"/>
		<path fill="#FDCDCA" stroke="#FDCDCA" stroke-width="1.51" d="M681.5-204.1L575.2-70.2L723-64L681.5-204.1z"/>
		<path fill="#BA77A6" stroke="#BA77A6" stroke-width="1.51" d="M-65.2-76l-127.3-109.2l12.4,142.5L-65.2-76z"/>
		<path fill="#F598B9" stroke="#F598B9" stroke-width="1.51" d="M314.5-151L188-120.9l74.2,67.5L314.5-151z"/>
		<path fill="#FDD7D3" stroke="#FDD7D3" stroke-width="1.51" d="M797.9-189.6l-116.5-14.5L723-64L797.9-189.6z"/>
		<path fill="#D57FA9" stroke="#D57FA9" stroke-width="1.51" d="M98.2-149.4L-65.2-76L1.3-54.4L98.2-149.4z"/>
		<path fill="#FCBFC7" stroke="#FCBFC7" stroke-width="1.51" d="M580.1-188.9L456.2-98.3l119,28L580.1-188.9z"/>
		<path fill="#FDADC1" stroke="#FDADC1" stroke-width="1.51" d="M432.6-177.2L314.5-151l141.7,52.8L432.6-177.2z"/>
		<path fill="#FEE5E2" stroke="#FEE5E2" stroke-width="1.51" d="M988.4-117.8l-31.6-94.8l-85.8,118L988.4-117.8z"/>
		<path fill="#D382AC" stroke="#D382AC" stroke-width="1.51" d="M98.2-149.4l-144.1-56.1L-65.2-76L98.2-149.4z"/>
		<path fill="#C37EAB" stroke="#C37EAB" stroke-width="1.51" d="M-45.8-205.5l-146.7,20.3L-65.2-76L-45.8-205.5z"/>
		<path fill="#FDBCC8" stroke="#FDBCC8" stroke-width="1.51" d="M580.1-188.9l-147.6,11.7l23.6,79L580.1-188.9z"/>
		<path fill="#FDE3DF" stroke="#FDE3DF" stroke-width="1.51" d="M956.8-212.6l-158.9,23l73.2,95.1L956.8-212.6z"/>
		<path fill="#C080AE" stroke="#C080AE" stroke-width="1.51" d="M-45.8-205.5l-84.8-8.3l-61.9,28.6L-45.8-205.5z"/>
		<path fill="#FEE8E4" stroke="#FEE8E4" stroke-width="1.51" d="M956.8-212.6l-22.6-14.1l-136.4,37.1L956.8-212.6z"/>
		<path fill="#F295BB" stroke="#F295BB" stroke-width="1.51" d="M314.5-151l-201.2-20.8l74.7,51L314.5-151z"/>
		<path fill="#E88EB5" stroke="#E88EB5" stroke-width="1.51" d="M113.3-171.9l-15,22.5l89.8,28.5L113.3-171.9z"/>
		<path fill="#FDC4CD" stroke="#FDC4CD" stroke-width="1.51" d="M580.1-188.9l-7.5-35.7l-140,47.3L580.1-188.9z"/>
		<path fill="#EF98BE" stroke="#EF98BE" stroke-width="1.51" d="M292.6-265.3l-190,6.6l10.7,86.9L292.6-265.3z"/>
		<path fill="#D788B1" stroke="#D788B1" stroke-width="1.51" d="M-31.6-226.5l-14.3,21l159.1,33.6L-31.6-226.5z"/>
		<path fill="#DD89B1" stroke="#DD89B1" stroke-width="1.51" d="M113.3-171.9l-159.1-33.6l144.1,56.1L113.3-171.9z"/>
		<path fill="#F59DBF" stroke="#F59DBF" stroke-width="1.51" d="M292.6-265.3l-179.3,93.5L314.5-151L292.6-265.3z"/>
		<path fill="#FCA9C2" stroke="#FCA9C2" stroke-width="1.51" d="M367.2-216.8l-74.7-48.6L314.5-151L367.2-216.8z"/>
		<path fill="#FEACC2" stroke="#FEACC2" stroke-width="1.51" d="M432.6-177.2l-65.3-39.6L314.5-151L432.6-177.2z"/>
		<path fill="#FDCFD0" stroke="#FDCFD0" stroke-width="1.51" d="M681.5-204.1l-108.9-20.4l7.5,35.7L681.5-204.1z"/>
		<path fill="#FEE4E0" stroke="#FEE4E0" stroke-width="1.51" d="M934.3-226.7l-151.6,2l15.2,35.1L934.3-226.7z"/>
		<path fill="#FEDCD8" stroke="#FEDCD8" stroke-width="1.51" d="M782.7-224.7l-101.2,20.6l116.5,14.5L782.7-224.7z"/>
		<path fill="#FEBBC9" stroke="#FEBBC9" stroke-width="1.51" d="M572.6-224.5l-205.4,7.8l65.3,39.6L572.6-224.5z"/>
		<path fill="#DF8CB5" stroke="#DF8CB5" stroke-width="1.51" d="M102.6-258.8l-134.1,32.2l144.8,54.7L102.6-258.8z"/>
		<path fill="#FDDBD6" stroke="#FDDBD6" stroke-width="1.51" d="M782.7-224.7l-121.5-40.5l20.3,61.1L782.7-224.7z"/>
		<path fill="#FED4D3" stroke="#FED4D3" stroke-width="1.51" d="M661.2-265.2l-88.6,40.7l108.9,20.4L661.2-265.2z"/>
		<path fill="#B77FAE" stroke="#B77FAE" stroke-width="1.51" d="M-130.6-213.8l-70.8-43.3l8.9,71.9L-130.6-213.8z"/>
		<path fill="#FEB6C8" stroke="#FEB6C8" stroke-width="1.51" d="M572.6-224.5l-280-40.8l74.7,48.6L572.6-224.5z"/>
		<path fill="#C984B1" stroke="#C984B1" stroke-width="1.51" d="M-31.6-226.5l-99.1,12.8l84.8,8.3L-31.6-226.5z"/>
		<path fill="#FEC6CF" stroke="#FEC6CF" stroke-width="1.51" d="M661.2-265.2l-368.6-0.1l280,40.8L661.2-265.2z"/>
		<path fill="#FEE2DE" stroke="#FEE2DE" stroke-width="1.51" d="M661.2-265.2l121.5,40.5l151.6-2L661.2-265.2z"/>
		<path fill="#C083B0" stroke="#C083B0" stroke-width="1.51" d="M-31.6-226.5l-169.8-30.5l70.8,43.3L-31.6-226.5z"/>
		<path fill="#CE88B3" stroke="#CE88B3" stroke-width="1.51" d="M102.6-258.8l-304,1.7l169.8,30.5L102.6-258.8z"/>
		<path fill="#E191B8" stroke="#E191B8" stroke-width="1.51" d="M292.6-265.3l-494,8.2l304-1.7L292.6-265.3z"/>
	</g>
</g>
<g id="Lager_2_kopia_2" opacity="0.25">
	<linearGradient id="SVGID_1_" gradientUnits="userSpaceOnUse" x1="334.5" y1="-196.11" x2="334.5" y2="872.11">
		<stop  offset="0" style="stop-color:#FFFFFF;stop-opacity:0"/>
		<stop  offset="1.284599e-02" style="stop-color:#FFFFFF;stop-opacity:1.027679e-02"/>
		<stop  offset="1" style="stop-color:#FFFFFF;stop-opacity:0.8"/>
	</linearGradient>
	<linearGradient id="SVGID_2_" gradientUnits="userSpaceOnUse" x1="-194.5793" y1="338" x2="863.5793" y2="338">
		<stop  offset="0" style="stop-color:#FFFFFF;stop-opacity:0"/>
		<stop  offset="1.284599e-02" style="stop-color:#FFFFFF;stop-opacity:1.027679e-02"/>
		<stop  offset="1" style="stop-color:#FFFFFF;stop-opacity:0.8"/>
	</linearGradient>
	
		<rect x="-194.1" y="-196.1" fill="url(#SVGID_1_)" stroke="url(#SVGID_2_)" stroke-miterlimit="10" width="1057.2" height="1068.2"/>
</g>
<g id="svg2" xmlns:rdf="http://www.w3.org/1999/02/22-rdf-syntax-ns#" xmlns:dc="http://purl.org/dc/elements/1.1/" xmlns:sodipodi="http://sodipodi.sourceforge.net/DTD/sodipodi-0.dtd" xmlns:cc="http://creativecommons.org/ns#" xmlns:svg="http://www.w3.org/2000/svg" xmlns:inkscape="http://www.inkscape.org/namespaces/inkscape" sodipodi:docname="CDRoundelWithTextBelow-LtBg.eps" inkscape:version="0.48.4 r9939">
	<g>
		<circle id="circle13" fill="#FEFEFE" cx="333.4" cy="173.9" r="260.7"/>
		<path id="path15" d="M334.5-92c146.8,0,265.9,119,265.9,265.9c0,146.8-119,265.9-265.9,265.9c-146.8,0-265.9-119-265.9-265.9
			C68.6,27.1,187.6-92,334.5-92z M331.8-78.3c-1.3,0-2.5,0-3.8,0.1C190.6-76.2,79.6,36,79.6,173.9c0,138.1,111.2,250.4,248.9,252.1
			c-68.1-1.7-122.9-57.5-122.9-126.1c0-69.6,56.5-126.1,126.1-126.1c69.6,0,126.1-56.5,126.1-126.1
			C457.8-21.7,401.3-78.2,331.8-78.3L331.8-78.3z"/>
		<path id="path17" d="M292.1,72.7v-94c0-4.1,1.5-7.7,4.5-10.6c3-3,6.6-4.5,10.7-4.5h49c4,0,7.6,1.5,10.5,4.5s4.5,6.6,4.5,10.6v94
			c0,4.2-1.5,7.8-4.5,10.7c-2.9,2.9-6.5,4.5-10.7,4.5h-48.8c-4.2,0-7.9-1.5-10.8-4.5C293.6,80.4,292.1,76.9,292.1,72.7L292.1,72.7z
			 M355.6,72.1v-92.7h-47.8v92.7H355.6z"/>
		<path id="path19" fill="#FFFFFF" d="M309.9,356.8H334v-92.7h-23.8c-2.2,0-4-0.7-5.6-2.3c-1.6-1.6-2.3-3.4-2.3-5.6s0.7-4,2.3-5.6
			c1.6-1.6,3.4-2.3,5.6-2.3h39.4v108.4h15.7v-32.7c0-2.1,0.7-3.9,2.3-5.5c1.6-1.6,3.4-2.4,5.6-2.4s4,0.7,5.6,2.3
			c1.6,1.6,2.3,3.4,2.3,5.6v40.6c0,2.2-0.7,4-2.3,5.6c-1.6,1.6-3.4,2.3-5.6,2.3h-63.4c-2.2,0-4-0.8-5.6-2.4
			c-1.6-1.6-2.3-3.5-2.3-5.7c0-2.1,0.7-3.9,2.3-5.4C305.9,357.6,307.7,356.8,309.9,356.8z"/>
		<path d="M57.7,600.7v26.4c-0.2,7.8-1.8,14.9-4.7,20.9c-2.3,5.2-6,10.2-11.3,14.1c-5.2,4.2-12.3,6.5-21.7,6.5
			c-9.4,0-16.8-2.3-22-6.5c-5.2-3.9-8.6-8.9-11-14.1c-2.9-6-4.5-13-4.7-20.9V513.9c0.3-7.6,1.8-14.6,4.7-20.6
			c2.3-5.2,5.7-10.5,11-14.3c5.2-3.9,12.5-6.5,22-6.5c9.4,0,16.5,2.6,21.7,6.5c5.2,4,8.8,9.1,11.3,14.3c2.9,6,4.5,13,4.7,20.6v26.4
			H31.3v-26.4c0-5.2-1.3-8.9-4.2-12c-1.3-1.3-3.7-2.1-6.5-2.1c-5,0-7.3,3.7-8.6,7c-0.8,2.1-1,4.5-1.3,7.1v113.1
			c0.3,5.5,1.8,9.1,4.5,12c1.3,1.3,3.1,2.1,5.5,2.1c6,0,8.3-3.1,9.7-7c0.8-1.8,1-4.2,1-7v-26.4L57.7,600.7L57.7,600.7z M139.9,631.8
			c-0.8,13.8-5,23.5-14.1,31.1c-4.7,4-11.3,5.7-19.8,5.7c-17,0-25.3-9.4-29.6-18.8c-2.3-5.5-4-11.8-4.2-18.8v-71.9
			c0.8-13.8,5-24,14.1-31.8c4.5-4,11-5.8,19.6-5.8c17,0,25.6,9.4,29.8,18.6c2.3,5.5,4,11.5,4.2,18.3V631.8z M115.1,559.1
			c0.3-5.5-0.8-9.4-3.4-12.5c-1.3-1.3-3.4-2.1-5.7-2.1c-5,0-7.1,3.4-8.1,7.3c-0.8,2.1-1,4.5-0.8,7.3V631c-0.2,5.5,1,9.4,3.4,12.3
			c1.3,1.3,3.1,2.1,5.5,2.1c5,0,7.3-3.1,8.3-7c0.8-2.1,1-4.5,0.8-7.3V559.1z M225,666.5h-26.4v-9.4c-4.5,4.2-8.3,7.3-13.3,9.7
			c-2.6,1.3-5.3,1.8-7.6,1.8c-7.3,0-12.3-4.2-15.4-9.7c-3.4-5.2-5-12.3-5-18.3v-91.2c0-6,1.5-13,5-18.5c3.1-5.2,8.1-9.4,15.4-9.4
			c5,0,10.2,2.9,14.1,5.8c2.3,1.8,4.5,3.7,6.8,5.7v-58.5H225V666.5z M198.6,554.9c0-4.2-3.9-8.6-7.8-8.6c-4,0-7,3.7-7,8.6v80.2
			c0,5,3.1,8.6,7,8.6c4,0,7.8-3.7,7.8-8.6V554.9z M312.2,615.3v16.5c-0.8,13.8-5,23.5-14.3,31.1c-4.7,4-11.3,5.7-19.8,5.7
			c-17,0-25.6-9.4-29.8-18.8c-2.3-5.5-4-11.8-4.2-18.8v-71.9c0.8-13.8,5.2-24,14.6-31.8c4.5-4,11-5.8,19.6-5.8
			c17,0,25.6,9.4,29.8,18.6c2.3,5.5,4,11.5,4.2,18.3v41.6h-43.6V631c0.3,5.5,1.8,9.4,4.2,12.3c1.3,1.3,3.1,2.1,5.5,2.1
			c5,0,7.3-3.1,8.3-7c0.8-2.1,1-4.5,1-7.3v-15.7h24.6L312.2,615.3z M268.6,579.2h19.1v-20.1c0-5.5-1-9.4-3.7-12.5
			c-1.3-1.3-3.4-2.1-5.7-2.1c-5,0-7.1,3.4-8.3,7.3c-0.8,2.1-1,4.5-1.3,7.3L268.6,579.2L268.6,579.2z M382.6,550.7
			c-2.3-0.8-5-1-7.3-1c-4.2,0-9.1,0.5-13.3,4.5c-5,4.2-5.8,8.6-5.8,13v99.3h-26.4V523.6h26.4v16c0.3-1.8,2.1-6.3,6.3-10.5
			c4.2-4,10.5-7.6,20.1-7.6V550.7z M394.1,666.5v-192h22.2c26.1,0,40.3,5.2,47.8,19.8c7.3,14.6,8.3,38.7,8.3,76.3
			c0,37.6-1,61.4-8.3,76c-7.5,14.6-21.7,19.8-47.8,19.8H394.1z M422.4,638.3c9.7,0,15.1-1,18-10.5c1.3-4.5,2.3-11.3,2.6-20.3
			c0.3-9.1,0.3-21.4,0.3-37.1c0-15.7,0-28-0.3-37.1c-0.2-8.9-1.3-15.7-2.6-20.3c-2.9-9.1-8.3-10.2-18-10.2V638.3L422.4,638.3z
			 M556.4,631.8c-0.8,13.8-5,23.5-14.1,31.1c-4.7,4-11.3,5.7-19.8,5.7c-17,0-25.3-9.4-29.6-18.8c-2.3-5.5-4-11.8-4.2-18.8v-71.9
			c0.8-13.8,5-24,14.1-31.8c4.5-4,11-5.8,19.6-5.8c17,0,25.6,9.4,29.8,18.6c2.3,5.5,4,11.5,4.2,18.3V631.8z M531.6,559.1
			c0.3-5.5-0.8-9.4-3.4-12.5c-1.3-1.3-3.4-2.1-5.7-2.1c-5,0-7.1,3.4-8.1,7.3c-0.8,2.1-1,4.5-0.8,7.3V631c-0.2,5.5,1,9.4,3.4,12.3
			c1.3,1.3,3.1,2.1,5.5,2.1c5,0,7.3-3.1,8.3-7c0.8-2.1,1-4.5,0.8-7.3V559.1z M574,474.4h26.4v26.4H574V474.4z M600.4,523.5v146.6
			c0,7.3,0,18.8-3.7,28.3c-3.7,9.7-11.8,17.3-26.6,17.3c-4.2,0-7-0.3-8.9-0.8c-1-0.3-1.8-0.5-2.6-0.8v-24.3c0.8,0.2,1.5,0.2,2.3,0.5
			c1.8,0.3,3.4,0.5,5,0.5c4.5,0,6.5-3.7,7.5-8.1c0.3-2.1,0.5-4.5,0.5-6.8V523.5H600.4z M686.6,631.7c-0.8,13.8-5,23.5-14.1,31.1
			c-4.7,3.9-11.3,5.7-19.8,5.7c-17,0-25.3-9.4-29.6-18.8c-2.3-5.5-4-11.8-4.2-18.8V559c0.8-13.8,5-24,14.1-31.8
			c4.5-4,11-5.8,19.6-5.8c17,0,25.6,9.4,29.8,18.6c2.3,5.5,4,11.5,4.2,18.3V631.7z M661.7,559c0.3-5.5-0.8-9.4-3.4-12.5
			c-1.3-1.3-3.4-2.1-5.7-2.1c-5,0-7.1,3.4-8.1,7.3c-0.8,2.1-1,4.5-0.8,7.3v71.9c-0.2,5.5,1,9.4,3.4,12.3c1.3,1.3,3.1,2.1,5.5,2.1
			c5,0,7.3-3.1,8.3-7c0.8-2.1,1-4.5,0.8-7.3V559z"/>
		<text transform="matrix(1 0 0 1 9.166 733.6534)" font-family="'HelveticaNeue-Bold'" font-size="71.3974">SUNDSVALL</text>
	</g>
</g>
<g id="Lager_2_kopia_3" opacity="0.1">
	<linearGradient id="SVGID_3_" gradientUnits="userSpaceOnUse" x1="334.5" y1="-196.11" x2="334.5" y2="872.11">
		<stop  offset="0" style="stop-color:#FFFFFF;stop-opacity:0"/>
		<stop  offset="1.284599e-02" style="stop-color:#FFFFFF;stop-opacity:1.027679e-02"/>
		<stop  offset="1" style="stop-color:#FFFFFF;stop-opacity:0.8"/>
	</linearGradient>
	<linearGradient id="SVGID_4_" gradientUnits="userSpaceOnUse" x1="-194.5793" y1="338" x2="863.5793" y2="338">
		<stop  offset="0" style="stop-color:#FFFFFF;stop-opacity:0"/>
		<stop  offset="1.284599e-02" style="stop-color:#FFFFFF;stop-opacity:1.027679e-02"/>
		<stop  offset="1" style="stop-color:#FFFFFF;stop-opacity:0.8"/>
	</linearGradient>
	
		<rect x="-194.1" y="-196.1" fill="url(#SVGID_3_)" stroke="url(#SVGID_4_)" stroke-miterlimit="10" width="1057.2" height="1068.2"/>
</g>
</svg>
