<?xml version="1.0" encoding="utf-8"?>
<!-- Generator: Adobe Illustrator 17.1.0, SVG Export Plug-In . SVG Version: 6.00 Build 0)  -->
<!DOCTYPE svg PUBLIC "-//W3C//DTD SVG 1.1//EN" "http://www.w3.org/Graphics/SVG/1.1/DTD/svg11.dtd">
<svg version="1.1" xmlns="http://www.w3.org/2000/svg" xmlns:xlink="http://www.w3.org/1999/xlink" x="0px" y="0px"
	 viewBox="-194.1 -196.1 1057.2 1068.2" enable-background="new -194.1 -196.1 1057.2 1068.2" xml:space="preserve">
<g id="Lager_5">
	<rect x="-194.1" y="-196.1" fill="#808080" width="1057.2" height="1068.2"/>
</g>
<g id="Lager_2">
	<polygon opacity="0.7" fill="#FF38C3" points="863.1,-1.4 -194.1,149.2 -194.1,-196.1 863.1,-196.1 	"/>
	<polygon opacity="0.5" fill="#FFC755" points="863.1,528.6 -194.1,421 -194.1,149.2 863.1,-1.4 	"/>
	<polygon opacity="0.5" fill="#32BEDA" points="863.1,872.1 -194.1,872.1 -194.1,421 863.1,528.6 	"/>
</g>
<g id="Lager_2_kopia_2" opacity="0.25">
	<linearGradient id="SVGID_1_" gradientUnits="userSpaceOnUse" x1="-194.0793" y1="338" x2="863.0793" y2="338">
		<stop  offset="0" style="stop-color:#FFFFFF;stop-opacity:0"/>
		<stop  offset="1.284599e-02" style="stop-color:#FFFFFF;stop-opacity:1.027679e-02"/>
		<stop  offset="1" style="stop-color:#FFFFFF;stop-opacity:0.8"/>
	</linearGradient>
	<linearGradient id="SVGID_2_" gradientUnits="userSpaceOnUse" x1="-194.5793" y1="338" x2="863.5793" y2="338">
		<stop  offset="0" style="stop-color:#FFFFFF;stop-opacity:0"/>
		<stop  offset="1.284599e-02" style="stop-color:#FFFFFF;stop-opacity:1.027679e-02"/>
		<stop  offset="1" style="stop-color:#FFFFFF;stop-opacity:0.8"/>
	</linearGradient>
	
		<rect x="-194.1" y="-196.1" fill="url(#SVGID_1_)" stroke="url(#SVGID_2_)" stroke-miterlimit="10" width="1057.2" height="1068.2"/>
</g>
<g id="svg2" xmlns:rdf="http://www.w3.org/1999/02/22-rdf-syntax-ns#" xmlns:dc="http://purl.org/dc/elements/1.1/" xmlns:sodipodi="http://sodipodi.sourceforge.net/DTD/sodipodi-0.dtd" xmlns:cc="http://creativecommons.org/ns#" xmlns:svg="http://www.w3.org/2000/svg" xmlns:inkscape="http://www.inkscape.org/namespaces/inkscape" sodipodi:docname="CDRoundelWithTextBelow-LtBg.eps" inkscape:version="0.48.4 r9939">
	
		<sodipodi:namedview  guidetolerance="10" gridtolerance="10" inkscape:cy="329.09222" showgrid="false" objecttolerance="10" inkscape:zoom="0.98901497" inkscape:cx="113.58352" bordercolor="#666666" pagecolor="#ffffff" borderopacity="1" inkscape:window-height="899" inkscape:window-maximized="0" inkscape:pageshadow="2" inkscape:window-width="1336" inkscape:window-y="134" inkscape:pageopacity="0" inkscape:window-x="0" inkscape:current-layer="svg2" id="namedview21">
		</sodipodi:namedview>
	<g id="_836803312">
		<circle id="circle13" fill="#FEFEFE" cx="333.4" cy="157.9" r="260.7"/>
		<path id="path15" d="M334.5-108c146.8,0,265.9,119,265.9,265.9c0,146.8-119,265.9-265.9,265.9c-146.8,0-265.9-119-265.9-265.9
			C68.6,11.1,187.6-108,334.5-108z M331.8-94.3c-1.3,0-2.5,0-3.8,0.1C190.6-92.2,79.6,20,79.6,157.9
			c0,138.1,111.2,250.4,248.9,252.1c-68.1-1.7-122.9-57.5-122.9-126.1c0-69.6,56.5-126.1,126.1-126.1c69.6,0,126.1-56.5,126.1-126.1
			C457.8-37.7,401.3-94.2,331.8-94.3L331.8-94.3z"/>
		<path id="path17" d="M292.1,56.7v-94c0-4.1,1.5-7.7,4.5-10.6c3-3,6.6-4.5,10.7-4.5h49c4,0,7.6,1.5,10.5,4.5
			c2.9,3,4.5,6.6,4.5,10.6v94c0,4.2-1.5,7.8-4.5,10.7c-2.9,2.9-6.5,4.5-10.7,4.5h-48.8c-4.2,0-7.9-1.5-10.8-4.5
			C293.6,64.4,292.1,60.9,292.1,56.7L292.1,56.7z M355.6,56.1v-92.7h-47.8v92.7H355.6z"/>
		<path id="path19" fill="#FFFFFF" d="M309.9,340.8H334v-92.7h-23.8c-2.2,0-4-0.7-5.6-2.3c-1.6-1.6-2.3-3.4-2.3-5.6s0.7-4,2.3-5.6
			c1.6-1.6,3.4-2.3,5.6-2.3h39.4v108.4h15.7v-32.7c0-2.1,0.7-3.9,2.3-5.5c1.6-1.6,3.4-2.4,5.6-2.4s4,0.7,5.6,2.3
			c1.6,1.6,2.3,3.4,2.3,5.6v40.6c0,2.2-0.7,4-2.3,5.6c-1.6,1.6-3.4,2.3-5.6,2.3h-63.4c-2.2,0-4-0.8-5.6-2.4
			c-1.6-1.6-2.3-3.5-2.3-5.7c0-2.1,0.7-3.9,2.3-5.4C305.9,341.6,307.7,340.8,309.9,340.8z"/>
	</g>
	<g>
		<path d="M57.7,584.7v26.4c-0.2,7.8-1.8,14.9-4.7,20.9c-2.3,5.2-6,10.2-11.3,14.1c-5.2,4.2-12.3,6.5-21.7,6.5
			c-9.4,0-16.8-2.3-22-6.5c-5.2-3.9-8.6-8.9-11-14.1c-2.9-6-4.5-13-4.7-20.9V497.9c0.3-7.6,1.8-14.6,4.7-20.6
			c2.3-5.2,5.7-10.5,11-14.3c5.2-3.9,12.5-6.5,22-6.5c9.4,0,16.5,2.6,21.7,6.5c5.2,4,8.8,9.1,11.3,14.3c2.9,6,4.5,13,4.7,20.6v26.4
			H31.3v-26.4c0-5.2-1.3-8.9-4.2-12c-1.3-1.3-3.7-2.1-6.5-2.1c-5,0-7.3,3.7-8.6,7c-0.8,2.1-1,4.5-1.3,7.1v113.1
			c0.3,5.5,1.8,9.1,4.5,12c1.3,1.3,3.1,2.1,5.5,2.1c6,0,8.3-3.1,9.7-7c0.8-1.8,1-4.2,1-7v-26.4L57.7,584.7L57.7,584.7z M139.9,615.8
			c-0.8,13.8-5,23.5-14.1,31.1c-4.7,4-11.3,5.7-19.8,5.7c-17,0-25.3-9.4-29.6-18.8c-2.3-5.5-4-11.8-4.2-18.8v-71.9
			c0.8-13.8,5-24,14.1-31.8c4.5-4,11-5.8,19.6-5.8c17,0,25.6,9.4,29.8,18.6c2.3,5.5,4,11.5,4.2,18.3V615.8z M115.1,543.1
			c0.3-5.5-0.8-9.4-3.4-12.5c-1.3-1.3-3.4-2.1-5.7-2.1c-5,0-7.1,3.4-8.1,7.3c-0.8,2.1-1,4.5-0.8,7.3V615c-0.2,5.5,1,9.4,3.4,12.3
			c1.3,1.3,3.1,2.1,5.5,2.1c5,0,7.3-3.1,8.3-7c0.8-2.1,1-4.5,0.8-7.3V543.1z M225,650.5h-26.4v-9.4c-4.5,4.2-8.3,7.3-13.3,9.7
			c-2.6,1.3-5.3,1.8-7.6,1.8c-7.3,0-12.3-4.2-15.4-9.7c-3.4-5.2-5-12.3-5-18.3v-91.2c0-6,1.5-13,5-18.5c3.1-5.2,8.1-9.4,15.4-9.4
			c5,0,10.2,2.9,14.1,5.8c2.3,1.8,4.5,3.7,6.8,5.7v-58.5H225V650.5z M198.6,538.9c0-4.2-3.9-8.6-7.8-8.6c-4,0-7,3.7-7,8.6v80.2
			c0,5,3.1,8.6,7,8.6c4,0,7.8-3.7,7.8-8.6V538.9z M312.2,599.3v16.5c-0.8,13.8-5,23.5-14.3,31.1c-4.7,4-11.3,5.7-19.8,5.7
			c-17,0-25.6-9.4-29.8-18.8c-2.3-5.5-4-11.8-4.2-18.8v-71.9c0.8-13.8,5.2-24,14.6-31.8c4.5-4,11-5.8,19.6-5.8
			c17,0,25.6,9.4,29.8,18.6c2.3,5.5,4,11.5,4.2,18.3v41.6h-43.6V615c0.3,5.5,1.8,9.4,4.2,12.3c1.3,1.3,3.1,2.1,5.5,2.1
			c5,0,7.3-3.1,8.3-7c0.8-2.1,1-4.5,1-7.3v-15.7h24.6L312.2,599.3z M268.6,563.2h19.1v-20.1c0-5.5-1-9.4-3.7-12.5
			c-1.3-1.3-3.4-2.1-5.7-2.1c-5,0-7.1,3.4-8.3,7.3c-0.8,2.1-1,4.5-1.3,7.3L268.6,563.2L268.6,563.2z M382.6,534.7
			c-2.3-0.8-5-1-7.3-1c-4.2,0-9.1,0.5-13.3,4.5c-5,4.2-5.8,8.6-5.8,13v99.3h-26.4V507.6h26.4v16c0.3-1.8,2.1-6.3,6.3-10.5
			c4.2-4,10.5-7.6,20.1-7.6V534.7z M394.1,650.5v-192h22.2c26.1,0,40.3,5.2,47.8,19.8c7.3,14.6,8.3,38.7,8.3,76.3s-1,61.4-8.3,76
			c-7.5,14.6-21.7,19.8-47.8,19.8H394.1z M422.4,622.3c9.7,0,15.1-1,18-10.5c1.3-4.5,2.3-11.3,2.6-20.3c0.3-9.1,0.3-21.4,0.3-37.1
			c0-15.7,0-28-0.3-37.1c-0.2-8.9-1.3-15.7-2.6-20.3c-2.9-9.1-8.3-10.2-18-10.2V622.3L422.4,622.3z M556.4,615.8
			c-0.8,13.8-5,23.5-14.1,31.1c-4.7,4-11.3,5.7-19.8,5.7c-17,0-25.3-9.4-29.6-18.8c-2.3-5.5-4-11.8-4.2-18.8v-71.9
			c0.8-13.8,5-24,14.1-31.8c4.5-4,11-5.8,19.6-5.8c17,0,25.6,9.4,29.8,18.6c2.3,5.5,4,11.5,4.2,18.3V615.8z M531.6,543.1
			c0.3-5.5-0.8-9.4-3.4-12.5c-1.3-1.3-3.4-2.1-5.7-2.1c-5,0-7.1,3.4-8.1,7.3c-0.8,2.1-1,4.5-0.8,7.3V615c-0.2,5.5,1,9.4,3.4,12.3
			c1.3,1.3,3.1,2.1,5.5,2.1c5,0,7.3-3.1,8.3-7c0.8-2.1,1-4.5,0.8-7.3V543.1z M574,458.4h26.4v26.4H574V458.4z M600.4,507.5v146.6
			c0,7.3,0,18.8-3.7,28.3c-3.7,9.7-11.8,17.3-26.6,17.3c-4.2,0-7-0.3-8.9-0.8c-1-0.3-1.8-0.5-2.6-0.8v-24.3c0.8,0.2,1.5,0.2,2.3,0.5
			c1.8,0.3,3.4,0.5,5,0.5c4.5,0,6.5-3.7,7.5-8.1c0.3-2.1,0.5-4.5,0.5-6.8V507.5H600.4z M686.6,615.7c-0.8,13.8-5,23.5-14.1,31.1
			c-4.7,3.9-11.3,5.7-19.8,5.7c-17,0-25.3-9.4-29.6-18.8c-2.3-5.5-4-11.8-4.2-18.8V543c0.8-13.8,5-24,14.1-31.8
			c4.5-4,11-5.8,19.6-5.8c17,0,25.6,9.4,29.8,18.6c2.3,5.5,4,11.5,4.2,18.3V615.7z M661.7,543c0.3-5.5-0.8-9.4-3.4-12.5
			c-1.3-1.3-3.4-2.1-5.7-2.1c-5,0-7.1,3.4-8.1,7.3c-0.8,2.1-1,4.5-0.8,7.3v71.9c-0.2,5.5,1,9.4,3.4,12.3c1.3,1.3,3.1,2.1,5.5,2.1
			c5,0,7.3-3.1,8.3-7c0.8-2.1,1-4.5,0.8-7.3V543z"/>
		<text transform="matrix(1 0 0 1 9.1661 717.6549)" font-family="'HelveticaNeue-Bold'" font-size="71.3974">SUNDSVALL</text>
	</g>
</g>
<g id="Lager_2_kopia" opacity="0.25">
	<linearGradient id="SVGID_3_" gradientUnits="userSpaceOnUse" x1="-194.0793" y1="338" x2="863.0793" y2="338">
		<stop  offset="0" style="stop-color:#FFFFFF;stop-opacity:0"/>
		<stop  offset="1.284599e-02" style="stop-color:#FFFFFF;stop-opacity:1.027679e-02"/>
		<stop  offset="1" style="stop-color:#FFFFFF;stop-opacity:0.8"/>
	</linearGradient>
	<linearGradient id="SVGID_4_" gradientUnits="userSpaceOnUse" x1="-194.5793" y1="338" x2="863.5793" y2="338">
		<stop  offset="0" style="stop-color:#FFFFFF;stop-opacity:0"/>
		<stop  offset="1.284599e-02" style="stop-color:#FFFFFF;stop-opacity:1.027679e-02"/>
		<stop  offset="1" style="stop-color:#FFFFFF;stop-opacity:0.8"/>
	</linearGradient>
	
		<rect x="-194.1" y="-196.1" fill="url(#SVGID_3_)" stroke="url(#SVGID_4_)" stroke-miterlimit="10" width="1057.2" height="1068.2"/>
</g>
</svg>
